<svg width="40" height="40" viewBox="0 0 40 40" fill="none" xmlns="http://www.w3.org/2000/svg">
<g id="Group 5">
<g id="timer_10">
<mask id="mask0_1_106" style="mask-type:alpha" maskUnits="userSpaceOnUse" x="10" y="13" width="20" height="21">
<rect id="Bounding box" x="10" y="13.3333" width="20" height="20" fill="#D9D9D9"/>
</mask>
<g mask="url(#mask0_1_106)">
<path id="timer_10_2" d="M21.6667 26.6667H24.1667V20H21.6667V26.6667ZM21.6667 29.1667C20.9722 29.1667 20.382 28.9236 19.8958 28.4375C19.4097 27.9514 19.1667 27.3611 19.1667 26.6667V20C19.1667 19.3056 19.4097 18.7153 19.8958 18.2292C20.382 17.7431 20.9722 17.5 21.6667 17.5H24.1667C24.8611 17.5 25.4514 17.7431 25.9375 18.2292C26.4236 18.7153 26.6667 19.3056 26.6667 20V26.6667C26.6667 27.3611 26.4236 27.9514 25.9375 28.4375C25.4514 28.9236 24.8611 29.1667 24.1667 29.1667H21.6667ZM15 29.1667V20H13.3333V17.5H17.5V29.1667H15Z" fill="white"/>
</g>
</g>
<g id="forward_media">
<mask id="mask1_1_106" style="mask-type:alpha" maskUnits="userSpaceOnUse" x="0" y="0" width="40" height="40">
<rect id="Bounding box_2" width="40" height="40" transform="matrix(-1 0 0 1 40 0)" fill="#D9D9D9"/>
</mask>
<g mask="url(#mask1_1_106)">
<path id="forward_media_2" d="M20 36.6667C22.0833 36.6667 24.0347 36.2709 25.8542 35.4792C27.6736 34.6875 29.2569 33.6181 30.6042 32.2709C31.9514 30.9236 33.0208 29.3403 33.8125 27.5209C34.6042 25.7014 35 23.75 35 21.6667C35 19.5834 34.6042 17.632 33.8125 15.8125C33.0208 13.9931 31.9514 12.4097 30.6042 11.0625C29.2569 9.7153 27.6736 8.64585 25.8542 7.85419C24.0347 7.06252 22.0833 6.66669 20 6.66669H19.75L22.3333 4.08335L20 1.66669L13.3333 8.33335L20 15L22.3333 12.5834L19.75 10H20C23.25 10 26.0069 11.132 28.2708 13.3959C30.5347 15.6597 31.6667 18.4167 31.6667 21.6667C31.6667 24.9167 30.5347 27.6736 28.2708 29.9375C26.0069 32.2014 23.25 33.3334 20 33.3334C16.75 33.3334 13.9931 32.2014 11.7292 29.9375C9.46528 27.6736 8.33333 24.9167 8.33333 21.6667H5C5 23.75 5.39583 25.7014 6.1875 27.5209C6.97917 29.3403 8.04861 30.9236 9.39583 32.2709C10.7431 33.6181 12.3264 34.6875 14.1458 35.4792C15.9653 36.2709 17.9167 36.6667 20 36.6667Z" fill="white"/>
</g>
</g>
</g>
</svg>
