<svg width="40" height="40" viewBox="0 0 40 40" fill="none" xmlns="http://www.w3.org/2000/svg">
<g id="Group 4">
<g id="timer_10">
<mask id="mask0_1_99" style="mask-type:alpha" maskUnits="userSpaceOnUse" x="10" y="13" width="20" height="21">
<rect id="Bounding box" x="10" y="13.3333" width="20" height="20" fill="#D9D9D9"/>
</mask>
<g mask="url(#mask0_1_99)">
<path id="timer_10_2" d="M21.6667 26.6667H24.1667V20H21.6667V26.6667ZM21.6667 29.1667C20.9722 29.1667 20.382 28.9236 19.8958 28.4375C19.4097 27.9514 19.1667 27.3611 19.1667 26.6667V20C19.1667 19.3056 19.4097 18.7153 19.8958 18.2292C20.382 17.7431 20.9722 17.5 21.6667 17.5H24.1667C24.8611 17.5 25.4514 17.7431 25.9375 18.2292C26.4236 18.7153 26.6667 19.3056 26.6667 20V26.6667C26.6667 27.3611 26.4236 27.9514 25.9375 28.4375C25.4514 28.9236 24.8611 29.1667 24.1667 29.1667H21.6667ZM15 29.1667V20H13.3333V17.5H17.5V29.1667H15Z" fill="white"/>
</g>
</g>
<g id="forward_media">
<mask id="mask1_1_99" style="mask-type:alpha" maskUnits="userSpaceOnUse" x="0" y="0" width="40" height="40">
<rect id="Bounding box_2" width="40" height="40" fill="#D9D9D9"/>
</mask>
<g mask="url(#mask1_1_99)">
<path id="forward_media_2" d="M20 36.6667C17.9167 36.6667 15.9653 36.2709 14.1458 35.4792C12.3264 34.6875 10.7431 33.6181 9.39583 32.2709C8.04861 30.9236 6.97917 29.3403 6.1875 27.5209C5.39583 25.7014 5 23.75 5 21.6667C5 19.5834 5.39583 17.632 6.1875 15.8125C6.97917 13.9931 8.04861 12.4097 9.39583 11.0625C10.7431 9.7153 12.3264 8.64585 14.1458 7.85419C15.9653 7.06252 17.9167 6.66669 20 6.66669H20.25L17.6667 4.08335L20 1.66669L26.6667 8.33335L20 15L17.6667 12.5834L20.25 10H20C16.75 10 13.9931 11.132 11.7292 13.3959C9.46528 15.6597 8.33333 18.4167 8.33333 21.6667C8.33333 24.9167 9.46528 27.6736 11.7292 29.9375C13.9931 32.2014 16.75 33.3334 20 33.3334C23.25 33.3334 26.0069 32.2014 28.2708 29.9375C30.5347 27.6736 31.6667 24.9167 31.6667 21.6667H35C35 23.75 34.6042 25.7014 33.8125 27.5209C33.0208 29.3403 31.9514 30.9236 30.6042 32.2709C29.2569 33.6181 27.6736 34.6875 25.8542 35.4792C24.0347 36.2709 22.0833 36.6667 20 36.6667Z" fill="white"/>
</g>
</g>
</g>
</svg>
