<!DOCTYPE svg PUBLIC "-//W3C//DTD SVG 1.1//EN" "http://www.w3.org/Graphics/SVG/1.1/DTD/svg11.dtd">
<!-- Uploaded to: SVG Repo, www.svgrepo.com, Transformed by: SVG Repo Mixer Tools -->
<svg width="64px" height="64px" viewBox="0 0 512 512" xmlns="http://www.w3.org/2000/svg" fill="#000000">
<g id="SVGRepo_bgCarrier" stroke-width="0"/>
<g id="SVGRepo_tracerCarrier" stroke-linecap="round" stroke-linejoin="round"/>
<g id="SVGRepo_iconCarrier"> <path fill="var(--ci-primary-color, #ffffff)" d="M32,111.882V400.118A23.979,23.979,0,0,0,70.285,419.4L248,287.763V400.118A23.979,23.979,0,0,0,286.285,419.4l194.56-144.119a24,24,0,0,0,0-38.57L286.285,92.6A24,24,0,0,0,248,111.882V224.237L70.285,92.6A24,24,0,0,0,32,111.882Zm248,15.881L453.119,256,280,384.237Zm-216,0L237.119,256,64,384.237Z" class="ci-primary"/> </g>
</svg>