<!DOCTYPE svg PUBLIC "-//W3C//DTD SVG 1.1//EN" "http://www.w3.org/Graphics/SVG/1.1/DTD/svg11.dtd">
<!-- Uploaded to: SVG Repo, www.svgrepo.com, Transformed by: SVG Repo Mixer Tools -->
<svg width="64px" height="64px" viewBox="0 0 512 512" xmlns="http://www.w3.org/2000/svg" fill="#000000">
<g id="SVGRepo_bgCarrier" stroke-width="0"/>
<g id="SVGRepo_tracerCarrier" stroke-linecap="round" stroke-linejoin="round"/>
<g id="SVGRepo_iconCarrier"> <path fill="var(--ci-primary-color, #ffffff)" d="M455.979,424.271A24.053,24.053,0,0,0,480,400.251V112.015a24,24,0,0,0-38.285-19.286L264,224.369V112.015a24,24,0,0,0-38.285-19.286L31.155,236.847h0a24,24,0,0,0,0,38.57l194.56,144.119A24,24,0,0,0,264,400.251V287.9L441.715,419.537A23.922,23.922,0,0,0,455.979,424.271ZM232,384.37,58.88,256.132,232,127.9ZM448,127.9V384.37L274.88,256.132Z" class="ci-primary"/> </g>
</svg>