<svg width="40" height="40" viewBox="0 0 40 40" fill="none" xmlns="http://www.w3.org/2000/svg">
<g id="volume_up">
<mask id="mask0_1_113" style="mask-type:alpha" maskUnits="userSpaceOnUse" x="0" y="0" width="40" height="40">
<rect id="Bounding box" width="40" height="40" fill="#D9D9D9"/>
</mask>
<g mask="url(#mask0_1_113)">
<path id="volume_up_2" d="M23.3333 34.5417V31.125C25.8333 30.4028 27.8472 29.0139 29.375 26.9583C30.9028 24.9028 31.6667 22.5694 31.6667 19.9583C31.6667 17.3472 30.9028 15.0139 29.375 12.9583C27.8472 10.9028 25.8333 9.51389 23.3333 8.79167V5.375C26.7778 6.15278 29.5833 7.89583 31.75 10.6042C33.9167 13.3125 35 16.4306 35 19.9583C35 23.4861 33.9167 26.6042 31.75 29.3125C29.5833 32.0208 26.7778 33.7639 23.3333 34.5417ZM5 25V15H11.6667L20 6.66667V33.3333L11.6667 25H5ZM23.3333 26.6667V13.25C24.6389 13.8611 25.6597 14.7778 26.3958 16C27.1319 17.2222 27.5 18.5556 27.5 20C27.5 21.4167 27.1319 22.7292 26.3958 23.9375C25.6597 25.1458 24.6389 26.0556 23.3333 26.6667ZM16.6667 14.75L13.0833 18.3333H8.33333V21.6667H13.0833L16.6667 25.25V14.75Z" fill="white"/>
</g>
</g>
</svg>
